<svg viewBox="0 0 130 40" xmlns="http://www.w3.org/2000/svg" width="130" height="40">
  <!-- 背景 -->

  
  <!-- 咖啡图标 -->
  <g transform="translate(5, 5) scale(0.028)">
    <path d="M944.7 435.7c11.5 13.5 16.4 31.2 13.6 48.6 0 0.2 0 0.4-0.1 0.5-10.8 65.6-41.5 125.2-88.7 172.3-25.2 25.2-54.2 45.7-85.7 61.1-31.5 15.3-65.5 25.4-100.7 29.6-6 12.4-16.4 22.5-29.4 27.9l-169 71.2c-6.1 2.1-12 1-14.2 0.1-4.6-1.9-8.2-5.5-10.1-10-12.7-30.1-13.1-62.3-3.6-91.1-69.4-11.2-133.1-45.2-181.4-97.4-54.5-58.8-84.5-135.4-84.5-215.7V328.5c0-4.3 0.6-8.5 1.6-12.5h-32.6c-52.8 0-95.7-42.9-95.7-95.7v-25.6c0-10.3 8.3-18.6 18.6-18.6h55.8c41 0 78.3 20.9 100.4 53.4 22.1-32.4 59.4-53.4 100.4-53.4h55.8c10.3 0 18.6 8.3 18.6 18.6v25.6c0 52.8-42.9 95.7-95.7 95.7h-29.5c0.3 1.1 0.6 2.2 0.8 3.3 10.4 55 58.7 95 114.9 95h494.2c17.7 0 34.6 7.8 46.2 21.4z" fill="#663333" class="svg-elem-1"></path>
    <path d="M916.4 459.8c1.6 1.9 2.9 4 3.8 6.2-133.9 23.7-240.8 126.5-268.9 260.7 0 0.2-0.1 0.4-0.1 0.7-1.4 6.3-5.8 11.6-11.8 14.1l-150.2 63.3c-8.5-42.4 13.7-86.5 55.1-104 9.5-4 13.9-14.9 9.9-24.3-4-9.5-14.9-13.9-24.3-9.9-23 9.7-41.8 25.3-55.3 44.3-65.8-7.8-126.5-38.7-171.9-87.6-48.2-51.9-74.7-119.5-74.7-190.4V328.5c0-3.4 1.3-6.5 3.6-8.8 2.4-2.4 5.5-3.7 8.9-3.7 6 0 11.2 4.3 12.3 10.3 13.7 72.6 77.4 125.2 151.4 125.2h494.2c6.9-0.1 13.5 3 18 8.3z" fill="#4EC8D8" class="svg-elem-2"></path>
    <path d="M916 504.6c-12.5 47.6-37.4 90.9-72.8 126.2-40.7 40.7-92.9 67.8-149 77.7C725.6 605.4 810.6 527.3 916 504.6z" fill="#000" class="svg-elem-3"></path>
    <path d="M888.4 299.9c0 10.3-8.3 18.6-18.6 18.6s-18.6-8.3-18.6-18.6c0-19.2-15.6-34.8-34.8-34.8-19.1 0-34.7 15.6-34.7 34.7v64.1c0 10.3-8.3 18.6-18.6 18.6s-18.6-8.3-18.6-18.6c0 0 0.1-65.6 0.1-66.4h-0.2c-1.2-18.1-16.3-32.4-34.7-32.4-19.2 0-34.8 15.6-34.8 34.8 0 10.3-8.3 18.6-18.6 18.6s-18.6-8.3-18.6-18.6c0-39.7 32.3-71.9 71.9-71.9 21.2 0 40.2 9.2 53.4 23.7 13.2-14.6 32.2-23.7 53.3-23.7 39.8 0 72.1 32.3 72.1 71.9zM669.5 491.8c12.2 0 22.1 9.9 22.1 22.1 0 12.2-9.9 22.1-22.1 22.1-12.2 0-22.1-9.9-22.1-22.1 0-12.2 9.9-22.1 22.1-22.1zM434.3 611c9.5 3.9 14 14.8 10.1 24.3-3 7.2-9.9 11.5-17.2 11.5-2.4 0-4.8-0.5-7.1-1.4-30.8-12.7-57.9-31.6-80.7-56.2-14.7-15.8-27-33.5-36.7-52.7-4.6-9.2-0.9-20.3 8.2-25 9.2-4.6 20.3-0.9 25 8.2 8.1 16.1 18.5 30.9 30.8 44.2 19.1 20.6 41.8 36.4 67.6 47.1z" fill="#663333" class="svg-elem-4"></path>
    <path d="M376.6 213.3v7c0 32.3-26.2 58.5-58.5 58.5h-60.8c8.6-38 42.9-65.5 82-65.5h37.3zM220.6 278.8h-60.8c-32.3 0-58.5-26.2-58.5-58.5v-7h37.2c39.2 0 73.6 27.5 82.1 65.5z" fill="#4EC8D8" class="svg-elem-5"></path>
  </g>
  
  <!-- 文字 "咖啡馆爱好者" -->
  <g transform="translate(35, 10) scale(0.8)">
 <path d="M0.70 9.38Q0.70 9.18 0.82 9.07Q0.94 8.95 1.15 8.85L1.15 8.85Q1.22 8.81 1.66 8.60Q2.10 8.39 2.51 8.27L2.51 8.27Q2.63 7.99 2.89 7.81Q3.15 7.63 3.56 7.63L3.56 7.63Q3.79 7.63 3.95 7.72Q4.10 7.81 4.16 7.95L4.16 7.95Q4.68 7.78 5.40 7.78L5.40 7.78Q6.31 7.78 6.98 8.17Q7.64 8.55 7.99 9.23Q8.33 9.90 8.33 10.74L8.33 10.74Q8.33 10.91 8.29 11.20L8.29 11.20Q7.71 14.48 3.39 14.48L3.39 14.48Q3.00 14.48 2.81 14.46L2.81 14.46L2.63 15.13Q2.34 16.21 2.34 16.24L2.34 16.24Q2.23 16.73 2.00 17.00Q1.76 17.26 1.25 17.26L1.25 17.26Q0.81 17.26 0.61 17.12Q0.41 16.97 0.41 16.62L0.41 16.62Q0.41 16.46 0.45 16.32L0.45 16.32L2.14 9.79Q1.41 10.00 1.04 10.36L1.04 10.36Q0.88 10.19 0.79 9.92Q0.70 9.65 0.70 9.38L0.70 9.38ZM3.11 13.16Q3.28 13.17 3.58 13.17L3.58 13.17Q4.91 13.17 5.69 12.67Q6.47 12.17 6.69 11.12L6.69 11.12Q6.73 10.88 6.73 10.77L6.73 10.77Q6.73 9.98 6.30 9.60Q5.87 9.21 5.08 9.21L5.08 9.21Q4.66 9.21 4.00 9.41L4.00 9.41Q3.46 11.58 3.11 13.16L3.11 13.16ZM14.13 16.35Q14.15 16.72 14.22 17.01L14.22 17.01Q14.20 17.09 13.98 17.18Q13.76 17.26 13.61 17.26L13.61 17.26Q13.10 17.26 12.89 17.12Q12.67 16.97 12.67 16.67L12.67 16.67Q12.67 16.39 12.73 16.11L12.73 16.11Q12.42 16.53 11.82 16.81Q11.23 17.08 10.86 17.08L10.86 17.08Q9.93 17.08 9.30 16.53Q8.68 15.99 8.68 14.78L8.68 14.78Q8.68 13.65 9.22 12.65Q9.76 11.65 10.71 11.04Q11.66 10.43 12.82 10.43L12.82 10.43Q13.05 10.43 13.41 10.55Q13.78 10.67 14.15 10.96Q14.52 11.24 14.77 11.69L14.77 11.69Q14.88 11.69 15.04 11.80Q15.19 11.91 15.19 12.03L15.19 12.03Q15.19 12.15 15.15 12.28L15.15 12.28L14.13 16.35ZM13.50 12.43Q13.41 12.12 13.17 11.91Q12.92 11.70 12.73 11.70L12.73 11.70Q12.08 11.70 11.51 12.16Q10.95 12.61 10.60 13.29Q10.25 13.96 10.25 14.56L10.25 14.56Q10.25 15.15 10.39 15.53Q10.53 15.90 10.93 15.90L10.93 15.90Q11.28 15.90 11.74 15.69Q12.19 15.48 12.55 15.13Q12.91 14.77 13.02 14.38L13.02 14.38L13.50 12.43ZM20.43 11.66Q20.26 11.58 20.01 11.58L20.01 11.58Q19.38 11.58 18.75 11.83Q18.12 12.08 18.12 12.47L18.12 12.47Q18.12 12.75 18.37 12.92Q18.62 13.09 19.17 13.30L19.17 13.30Q19.75 13.54 20.12 13.75Q20.48 13.96 20.75 14.36Q21.03 14.76 21.03 15.37L21.03 15.37Q21.03 16.38 20.20 16.92Q19.36 17.46 17.96 17.46L17.96 17.46Q17.28 17.46 16.69 17.25Q16.10 17.04 15.76 16.71Q15.41 16.38 15.39 16.06L15.39 16.06Q15.39 15.72 15.68 15.51Q15.97 15.29 16.51 15.22L16.51 15.22Q16.52 15.50 16.80 15.74Q17.08 15.99 17.46 16.14Q17.85 16.28 18.13 16.28L18.13 16.28Q18.61 16.28 19.00 16.02Q19.39 15.76 19.39 15.41L19.39 15.41Q19.39 14.77 18.14 14.39L18.14 14.39Q17.35 14.15 16.92 13.64Q16.49 13.12 16.49 12.54L16.49 12.54Q16.49 11.41 17.52 10.91Q18.55 10.42 20.15 10.42L20.15 10.42Q21.04 10.42 21.53 10.63Q22.02 10.84 22.02 11.35L22.02 11.35Q22.02 11.70 21.76 11.97Q21.50 12.24 21.03 12.24L21.03 12.24Q20.61 12.24 20.49 12.17Q20.37 12.11 20.36 11.96L20.36 11.96Q20.36 11.82 20.43 11.66L20.43 11.66ZM26.87 11.66Q26.70 11.58 26.45 11.58L26.45 11.58Q25.82 11.58 25.19 11.83Q24.56 12.08 24.56 12.47L24.56 12.47Q24.56 12.75 24.81 12.92Q25.06 13.09 25.61 13.30L25.61 13.30Q26.19 13.54 26.56 13.75Q26.92 13.96 27.20 14.36Q27.47 14.76 27.47 15.37L27.47 15.37Q27.47 16.38 26.64 16.92Q25.80 17.46 24.40 17.46L24.40 17.46Q23.72 17.46 23.13 17.25Q22.54 17.04 22.20 16.71Q21.85 16.38 21.83 16.06L21.83 16.06Q21.83 15.72 22.12 15.51Q22.41 15.29 22.95 15.22L22.95 15.22Q22.96 15.50 23.24 15.74Q23.52 15.99 23.91 16.14Q24.29 16.28 24.57 16.28L24.57 16.28Q25.05 16.28 25.44 16.02Q25.83 15.76 25.83 15.41L25.83 15.41Q25.83 14.77 24.58 14.39L24.58 14.39Q23.79 14.15 23.36 13.64Q22.93 13.12 22.93 12.54L22.93 12.54Q22.93 11.41 23.96 10.91Q24.99 10.42 26.59 10.42L26.59 10.42Q27.48 10.42 27.97 10.63Q28.46 10.84 28.46 11.35L28.46 11.35Q28.46 11.70 28.20 11.97Q27.94 12.24 27.47 12.24L27.47 12.24Q27.05 12.24 26.93 12.17Q26.81 12.11 26.80 11.96L26.80 11.96Q26.80 11.82 26.87 11.66L26.87 11.66ZM31.23 17.37Q29.86 17.37 29.23 16.83Q28.60 16.28 28.60 15.37L28.60 15.37Q28.60 14.04 29.27 12.91Q29.93 11.77 31.05 11.11Q32.16 10.44 33.45 10.44L33.45 10.44Q34.23 10.44 34.76 10.89Q35.29 11.33 35.29 12.18L35.29 12.18Q35.29 12.67 34.98 12.99Q34.66 13.30 34.08 13.55Q33.49 13.79 32.17 14.24L32.17 14.24Q30.98 14.63 30.24 14.90L30.24 14.90Q30.18 15.11 30.18 15.33L30.18 15.33Q30.18 15.72 30.51 15.93Q30.84 16.14 31.44 16.14L31.44 16.14Q31.82 16.14 32.31 15.99Q32.80 15.83 32.93 15.60L32.93 15.60Q33.40 14.73 33.80 14.73L33.80 14.73Q34.37 14.73 34.57 14.95Q34.78 15.16 34.79 15.43L34.79 15.43Q34.62 15.88 34.13 16.33Q33.64 16.79 32.89 17.08Q32.13 17.37 31.23 17.37L31.23 17.37ZM30.63 13.61Q32.02 13.16 32.91 12.78Q33.81 12.39 33.81 12.01L33.81 12.01Q33.81 11.84 33.63 11.74Q33.45 11.63 33.24 11.63L33.24 11.63Q32.82 11.63 32.28 11.96Q31.74 12.28 31.28 12.74Q30.81 13.20 30.63 13.61L30.63 13.61ZM37.51 16.55Q37.49 16.63 37.44 16.88Q37.39 17.12 37.21 17.22Q37.02 17.32 36.61 17.32L36.61 17.32Q36.15 17.32 35.94 17.22Q35.73 17.12 35.73 16.80L35.73 16.80L36.40 14.13Q36.96 11.82 37.14 11.19L37.14 11.19L36.79 10.77Q36.75 10.72 36.75 10.67L36.75 10.67Q36.75 10.53 37.06 10.44Q37.37 10.35 37.91 10.35L37.91 10.35Q38.40 10.35 38.57 10.62Q38.74 10.89 38.78 11.33L38.78 11.33L38.68 11.69Q39.13 11.14 39.73 10.79Q40.32 10.43 40.78 10.43L40.78 10.43Q41.38 10.43 41.72 10.64Q42.06 10.85 42.06 11.19L42.06 11.19Q42.06 11.48 41.85 11.80Q41.65 12.11 41.34 12.33Q41.03 12.54 40.74 12.57L40.74 12.57Q40.46 12.57 40.36 12.50Q40.26 12.43 40.26 12.29L40.26 12.29L40.35 11.83Q39.23 12.14 38.32 13.31L38.32 13.31L37.51 16.55ZM46.68 9.83Q46.40 9.73 46.25 9.53Q46.10 9.32 46.10 9.04L46.10 9.04Q46.10 8.64 46.65 8.40L46.65 8.40Q48.65 7.99 50.68 7.83L50.68 7.83Q51.23 8.06 51.23 8.47L51.23 8.47Q51.23 8.72 50.97 8.96Q50.72 9.20 50.40 9.30L50.40 9.30L49.63 9.39Q49.39 10.44 48.54 13.92L48.54 13.92L48.15 15.48L49.22 15.37Q49.77 15.61 49.77 16.02L49.77 16.02Q49.77 16.27 49.52 16.51Q49.27 16.74 48.94 16.84L48.94 16.84L48.38 16.91Q46.33 17.14 45.22 17.37L45.22 17.37Q44.94 17.28 44.79 17.07Q44.65 16.87 44.65 16.59L44.65 16.59Q44.65 16.18 45.19 15.95L45.19 15.95Q45.89 15.81 46.26 15.75L46.26 15.75L47.80 9.63Q47.22 9.72 46.68 9.83L46.68 9.83ZM51.59 10.68Q51.55 10.64 51.55 10.58L51.55 10.58Q51.55 10.44 51.86 10.35Q52.16 10.26 52.71 10.26L52.71 10.26Q53.20 10.26 53.37 10.54Q53.54 10.81 53.58 11.24L53.58 11.24Q53.55 11.35 53.52 11.55L53.52 11.55L53.45 11.89Q53.86 11.41 54.66 10.96Q55.45 10.50 55.90 10.50L55.90 10.50Q56.60 10.50 56.88 10.75Q57.15 10.99 57.19 11.68L57.19 11.68Q57.71 11.19 58.38 10.84Q59.05 10.50 59.56 10.50L59.56 10.50Q60.09 10.50 60.54 10.72Q60.98 10.93 60.98 11.41L60.98 11.41Q60.98 11.54 60.97 11.61L60.97 11.61Q60.93 11.83 60.81 12.23Q60.69 12.63 60.63 12.81L60.63 12.81Q60.28 13.94 60.10 14.72Q59.91 15.50 59.86 16.24L59.86 16.24L60.06 16.93Q59.89 17.25 59.59 17.44Q59.29 17.63 58.72 17.63L58.72 17.63Q58.38 17.63 58.23 17.40Q58.07 17.18 58.07 16.84L58.07 16.84Q58.07 16.77 58.09 16.69Q58.10 16.60 58.10 16.53L58.10 16.53Q58.13 15.75 58.33 14.95Q58.53 14.14 58.86 13.13L58.86 13.13Q59.15 12.25 59.15 12.05L59.15 12.05Q59.15 11.97 59.13 11.88Q59.11 11.79 59.08 11.79L59.08 11.79Q58.76 11.79 58.02 12.10Q57.29 12.40 57.04 12.71L57.04 12.71Q56.77 13.57 56.15 16.27L56.15 16.27L56.07 16.66Q56.00 17.02 55.94 17.16Q55.87 17.30 55.69 17.37Q55.51 17.44 55.10 17.44L55.10 17.44Q54.14 17.44 54.14 17.05L54.14 17.05Q54.25 16.74 54.75 14.69L54.75 14.69Q55.06 13.41 55.45 11.87L55.45 11.87Q55.37 11.91 55.15 12.00L55.15 12.00Q54.47 12.26 53.98 12.54Q53.48 12.82 53.17 13.20L53.17 13.20L52.81 14.69Q52.72 15.02 52.65 15.31Q52.58 15.60 52.53 15.79L52.53 15.79Q52.46 16.03 52.43 16.44L52.43 16.44Q52.40 16.72 52.35 16.84Q52.30 16.97 52.12 17.05Q51.93 17.12 51.52 17.12L51.52 17.12Q51.06 17.12 50.82 17.02Q50.58 16.93 50.58 16.60L50.58 16.60Q50.58 16.45 50.94 14.97Q51.30 13.48 51.91 11.10L51.91 11.10L51.59 10.68ZM66.91 16.35Q66.93 16.72 67.00 17.01L67.00 17.01Q66.98 17.09 66.76 17.18Q66.54 17.26 66.39 17.26L66.39 17.26Q65.88 17.26 65.67 17.12Q65.45 16.97 65.45 16.67L65.45 16.67Q65.45 16.39 65.51 16.11L65.51 16.11Q65.20 16.53 64.60 16.81Q64.01 17.08 63.64 17.08L63.64 17.08Q62.71 17.08 62.08 16.53Q61.46 15.99 61.46 14.78L61.46 14.78Q61.46 13.65 62.00 12.65Q62.54 11.65 63.49 11.04Q64.44 10.43 65.60 10.43L65.60 10.43Q65.83 10.43 66.19 10.55Q66.56 10.67 66.93 10.96Q67.30 11.24 67.55 11.69L67.55 11.69Q67.66 11.69 67.82 11.80Q67.97 11.91 67.97 12.03L67.97 12.03Q67.97 12.15 67.93 12.28L67.93 12.28L66.91 16.35ZM66.28 12.43Q66.19 12.12 65.95 11.91Q65.70 11.70 65.51 11.70L65.51 11.70Q64.86 11.70 64.30 12.16Q63.73 12.61 63.38 13.29Q63.03 13.96 63.03 14.56L63.03 14.56Q63.03 15.15 63.17 15.53Q63.31 15.90 63.71 15.90L63.71 15.90Q64.06 15.90 64.52 15.69Q64.97 15.48 65.33 15.13Q65.69 14.77 65.80 14.38L65.80 14.38L66.28 12.43ZM70.11 20.26Q69.47 20.26 68.90 19.98Q68.33 19.70 67.95 19.26Q67.56 18.82 67.40 18.37L67.40 18.37Q67.41 18.12 67.64 17.87Q67.87 17.63 68.45 17.63L68.45 17.63Q68.63 17.63 68.76 17.77Q68.89 17.91 69.06 18.21L69.06 18.21Q69.29 18.63 69.53 18.87Q69.78 19.10 70.21 19.10L70.21 19.10Q70.70 19.10 71.16 18.71Q71.61 18.33 71.94 17.67Q72.27 17.01 72.39 16.21L72.39 16.21Q72.09 16.63 71.69 16.86Q71.29 17.08 70.94 17.08L70.94 17.08Q69.82 17.08 69.17 16.58Q68.52 16.09 68.52 14.81L68.52 14.81Q68.52 13.66 69.15 12.67Q69.79 11.68 70.85 11.09Q71.92 10.50 73.14 10.50L73.14 10.50Q73.93 10.50 74.32 10.82Q74.70 11.14 74.79 11.63L74.79 11.63Q75.03 11.75 75.04 11.86L75.04 11.86Q75.04 11.90 74.98 12.15L74.98 12.15Q74.72 13.30 73.86 16.69L73.86 16.69L73.71 17.30Q73.36 18.66 72.37 19.46Q71.39 20.26 70.11 20.26L70.11 20.26ZM73.28 11.94Q73.16 11.75 73.06 11.69Q72.95 11.63 72.74 11.63L72.74 11.63Q72.09 11.63 71.47 12.06Q70.85 12.49 70.48 13.17Q70.10 13.85 70.10 14.56L70.10 14.56Q70.10 15.08 70.29 15.46Q70.48 15.83 70.90 15.89L70.90 15.89Q71.46 15.79 71.95 15.39Q72.45 14.98 72.63 14.34L72.63 14.34L73.28 11.94ZM78.20 17.37Q76.83 17.37 76.20 16.83Q75.57 16.28 75.57 15.37L75.57 15.37Q75.57 14.04 76.24 12.91Q76.90 11.77 78.02 11.11Q79.13 10.44 80.42 10.44L80.42 10.44Q81.20 10.44 81.73 10.89Q82.26 11.33 82.26 12.18L82.26 12.18Q82.26 12.67 81.95 12.99Q81.63 13.30 81.05 13.55Q80.46 13.79 79.14 14.24L79.14 14.24Q77.95 14.63 77.21 14.90L77.21 14.90Q77.15 15.11 77.15 15.33L77.15 15.33Q77.15 15.72 77.48 15.93Q77.81 16.14 78.41 16.14L78.41 16.14Q78.79 16.14 79.28 15.99Q79.77 15.83 79.90 15.60L79.90 15.60Q80.37 14.73 80.77 14.73L80.77 14.73Q81.34 14.73 81.54 14.95Q81.75 15.16 81.76 15.43L81.76 15.43Q81.59 15.88 81.10 16.33Q80.61 16.79 79.86 17.08Q79.10 17.37 78.20 17.37L78.20 17.37ZM77.60 13.61Q78.99 13.16 79.88 12.78Q80.78 12.39 80.78 12.01L80.78 12.01Q80.78 11.84 80.60 11.74Q80.42 11.63 80.21 11.63L80.21 11.63Q79.79 11.63 79.25 11.96Q78.71 12.28 78.25 12.74Q77.78 13.20 77.60 13.61L77.60 13.61Z" fill="#000" class="svg-elem-6"></path>  </g>
  
  <!-- 副标题 -->
  <text x="65" y="34" font-family="Arial, sans-serif" font-size="6" fill="#D4A574" text-anchor="middle" letter-spacing="1">COFFEE LOVER</text>
</svg>